<svg xmlns="http://www.w3.org/2000/svg" width="40" height="32" viewBox="0 0 40 32" fill="none">
  <g clip-path="url(#clip0_7_86)">
    <path d="M27.167 21.482H16.668C15.716 21.482 14.944 20.798 14.944 19.954V10.494H4.862C3.502 10.494 2.4 11.471 2.4 12.676V27.885C10.527 28.748 18.787 28.747 27.179 27.885V21.493L27.168 21.483L27.167 21.482Z" fill="#00BFC5"/>
    <path d="M3.586 32.0001H25.995C27.969 32.0001 29.575 30.1541 29.575 27.8841C29.575 27.5751 29.292 27.3241 28.943 27.3241H27.81V22.0521H38.506C39.33 22.0521 40 21.4581 40 20.7291V4.32607C40 3.59607 39.33 3.00307 38.506 3.00307H36.68V1.40007C36.68 0.747068 36.146 0.195068 35.409 0.0870683C32.304 -0.368932 29.907 1.02907 27.179 2.96907C24.451 1.02807 22.054 -0.369932 18.949 0.0870683C18.213 0.194068 17.678 0.747068 17.678 1.40007V3.00307H15.85C15.026 3.00307 14.356 3.59707 14.356 4.32607V9.93407H4.861C3.155 9.93407 1.768 11.1641 1.768 12.6751V27.3241H0.632C0.283 27.3241 0 27.5751 0 27.8841C0 30.1531 1.609 32.0001 3.586 32.0001ZM38.506 4.12207C38.633 4.12207 38.737 4.21307 38.737 4.32607V20.7291C38.737 20.8421 38.633 20.9331 38.506 20.9331H29.446C31.777 19.7571 33.677 19.1511 36.049 19.1471C36.397 19.1471 36.679 18.8961 36.679 18.5871V4.12207H38.506ZM27.811 3.95507C30.84 1.79207 32.753 0.830068 35.203 1.19107C35.327 1.20907 35.416 1.29707 35.416 1.39907V18.0411C32.733 18.1541 30.601 18.9741 27.81 20.4831V3.95507H27.811ZM18.942 1.39907C18.942 1.29607 19.032 1.20907 19.155 1.19107C21.605 0.833068 23.524 1.80107 26.548 3.95907V20.4861C23.76 18.9781 21.623 18.1541 18.942 18.0411V1.39907ZM15.62 4.32607C15.62 4.21307 15.724 4.12207 15.851 4.12207H17.679V18.5871C17.679 18.8961 17.961 19.1461 18.309 19.1471C20.681 19.1501 22.581 19.7571 24.912 20.9331H15.85C15.723 20.9331 15.619 20.8421 15.619 20.7291L15.62 4.32607ZM3.031 12.6751C3.031 11.7811 3.852 11.0531 4.861 11.0531H14.356V20.7281C14.356 21.4581 15.026 22.0511 15.85 22.0511H26.547V27.3231H18.278C17.581 27.3231 16.949 27.6631 16.591 28.2701C16.487 28.4461 16.284 28.5551 16.06 28.5551H13.517C13.292 28.5551 13.088 28.4451 12.953 28.2141C12.631 27.6641 11.998 27.3231 11.299 27.3231H3.031V12.6741V12.6751ZM11.299 28.4441C11.524 28.4441 11.728 28.5541 11.863 28.7851C12.184 29.3351 12.818 29.6771 13.517 29.6771H16.06C16.756 29.6771 17.389 29.3371 17.747 28.7301C17.851 28.5541 18.054 28.4451 18.278 28.4451H28.269C28.06 29.8131 27.103 30.8821 25.995 30.8821H3.586C2.475 30.8821 1.516 29.8131 1.306 28.4451H11.3L11.299 28.4441Z" fill="#FAFAFA"/>
    <path d="M6.367 14.681H11.021C11.37 14.681 11.653 14.43 11.653 14.121C11.653 13.812 11.37 13.561 11.021 13.561H6.367C6.018 13.561 5.735 13.812 5.735 14.121C5.735 14.43 6.018 14.681 6.367 14.681Z" fill="#FAFAFA"/>
    <path d="M6.367 18.06H11.021C11.37 18.06 11.653 17.809 11.653 17.5C11.653 17.191 11.37 16.94 11.021 16.94H6.367C6.018 16.94 5.735 17.191 5.735 17.5C5.735 17.809 6.018 18.06 6.367 18.06Z" fill="#FAFAFA"/>
    <path d="M6.367 21.438H11.021C11.37 21.438 11.653 21.187 11.653 20.878C11.653 20.569 11.37 20.318 11.021 20.318H6.367C6.018 20.318 5.735 20.569 5.735 20.878C5.735 21.187 6.018 21.438 6.367 21.438Z" fill="#FAFAFA"/>
    <path d="M23.8 24.256C23.8 23.947 23.517 23.696 23.168 23.696H6.367C6.018 23.696 5.735 23.947 5.735 24.256C5.735 24.565 6.018 24.816 6.367 24.816H23.169C23.518 24.816 23.801 24.565 23.801 24.256H23.8Z" fill="#FAFAFA"/>
  </g>
  <defs>
    <clipPath id="clip0_7_86">
      <rect width="40" height="32" fill="white"/>
    </clipPath>
  </defs>
</svg>