<svg xmlns="http://www.w3.org/2000/svg" width="40" height="40" viewBox="0 0 40 40" fill="none">
  <g clip-path="url(#clip0_7_108)">
    <path d="M26.891 10.2681C22.322 5.6931 14.92 5.6861 10.351 10.2681C5.789 14.8431 5.789 22.2741 10.351 26.8491C14.913 31.4241 22.322 31.4311 26.891 26.8491C31.46 22.2671 31.46 14.8501 26.891 10.2681Z" fill="#00BFC5"/>
    <path d="M31.999 27.413C31.47 26.943 30.666 26.969 30.168 27.469L29.285 28.354L27.762 26.826C32.124 21.981 31.992 14.487 27.338 9.82002C26.812 9.29302 26.244 8.83402 25.653 8.42202V4.89902C25.653 4.07302 24.983 3.40102 24.159 3.40102H22.332V1.58502C22.332 0.846016 21.797 0.222016 21.061 0.0990161C17.954 -0.418984 15.557 1.16602 12.828 3.36302C10.098 1.16502 7.7 -0.419984 4.593 0.0990161C3.857 0.221016 3.322 0.846016 3.322 1.58502V3.40102H1.493C0.669001 3.40102 -0.000999451 4.07302 -0.000999451 4.89902V23.469C-0.000999451 24.295 0.669001 24.967 1.493 24.967H8.093C8.6 25.802 9.197 26.588 9.904 27.296C12.233 29.632 15.329 30.918 18.621 30.918C21.701 30.918 24.6 29.779 26.869 27.722L28.392 29.249L27.505 30.139C27.006 30.639 26.982 31.446 27.449 31.975L33.405 38.723C34.845 40.355 37.357 40.433 38.895 38.89C40.436 37.344 40.353 34.827 38.728 33.384L32 27.411L31.999 27.413ZM24.159 4.66702C24.286 4.66702 24.39 4.77102 24.39 4.89802V7.63802C23.727 7.28702 23.037 7.00602 22.332 6.78502V4.66702H24.159ZM20.854 1.34802C20.979 1.36902 21.069 1.46802 21.069 1.58402V6.45502C18.523 5.94202 15.852 6.24702 13.459 7.35102V4.47802C16.489 2.02902 18.403 0.941016 20.854 1.34802ZM4.586 1.58502C4.586 1.46902 4.676 1.36902 4.8 1.34902C7.25 0.944016 9.17 2.03902 12.196 4.48302V8.02602C11.382 8.52502 10.608 9.11402 9.905 9.82002C7.124 12.609 5.781 16.568 6.491 20.69C5.867 20.559 5.237 20.459 4.586 20.427V1.58502ZM1.494 23.7C1.367 23.7 1.263 23.596 1.263 23.469V4.89902C1.263 4.77202 1.367 4.66802 1.494 4.66802H3.323V21.045C3.323 21.394 3.605 21.678 3.954 21.678C4.944 21.679 5.879 21.807 6.8 22.054C6.965 22.619 7.178 23.166 7.422 23.701L1.494 23.7ZM10.797 26.401C6.478 22.069 6.479 15.047 10.797 10.716C15.108 6.39302 22.128 6.39402 26.444 10.716C30.756 15.041 30.756 22.077 26.444 26.401C24.354 28.497 21.575 29.652 18.621 29.652C15.667 29.652 12.888 28.497 10.797 26.401ZM28.398 31.035L31.061 28.364C31.075 28.35 31.094 28.343 31.113 28.343C31.13 28.343 31.148 28.349 31.162 28.362L32.653 29.686L29.715 32.633L28.395 31.137C28.37 31.108 28.371 31.063 28.398 31.035ZM38.001 37.996C37.506 38.491 36.844 38.747 36.152 38.732C35.453 38.711 34.814 38.41 34.35 37.885L30.553 33.583L33.6 30.527L37.89 34.335C38.974 35.298 39.023 36.971 38.001 37.996Z" fill="#FAFAFA"/>
    <path d="M23.965 12.7151H13.282C12.933 12.7151 12.65 12.9991 12.65 13.3481C12.65 13.6971 12.933 13.9811 13.282 13.9811H23.965C24.314 13.9811 24.597 13.6971 24.597 13.3481C24.597 12.9991 24.314 12.7151 23.965 12.7151Z" fill="#FAFAFA"/>
    <path d="M23.965 17.926H13.282C12.933 17.926 12.65 18.21 12.65 18.559C12.65 18.908 12.933 19.192 13.282 19.192H23.965C24.314 19.192 24.597 18.908 24.597 18.559C24.597 18.21 24.314 17.926 23.965 17.926Z" fill="#FAFAFA"/>
    <path d="M23.965 23.137H13.282C12.933 23.137 12.65 23.421 12.65 23.77C12.65 24.119 12.933 24.403 13.282 24.403H23.965C24.314 24.403 24.597 24.119 24.597 23.77C24.597 23.421 24.314 23.137 23.965 23.137Z" fill="#FAFAFA"/>
  </g>
  <defs>
    <clipPath id="clip0_7_108">
      <rect width="40" height="40" fill="white"/>
    </clipPath>
  </defs>
</svg>
