<svg xmlns="http://www.w3.org/2000/svg" width="40" height="39" viewBox="0 0 40 39" fill="none">
  <g clip-path="url(#clip0_7_220)">
    <path d="M35.999 3.50684H3.999C2.138 3.50684 0.630997 5.01384 0.630997 6.87484V12.7698H39.368V6.87484C39.368 5.01384 37.851 3.50684 35.999 3.50684ZM10.239 10.0338C9.186 10.0338 8.344 9.18284 8.344 8.13884C8.344 7.09484 9.186 6.24384 10.239 6.24384C11.283 6.24384 12.134 7.09484 12.134 8.13884C12.134 9.18284 11.283 10.0338 10.239 10.0338ZM29.759 10.0338C28.706 10.0338 27.864 9.18284 27.864 8.13884C27.864 7.09484 28.706 6.24384 29.759 6.24384C30.803 6.24384 31.654 7.09484 31.654 8.13884C31.654 9.18284 30.803 10.0338 29.759 10.0338Z" fill="#AEFC65"/>
    <path d="M4 38.381H36C38.206 38.381 40 36.587 40 34.381V6.878C40 4.672 38.206 2.878 36 2.878H30.394V0.632C30.394 0.283 30.111 0 29.762 0C29.413 0 29.13 0.283 29.13 0.632V2.878H10.87V0.632C10.87 0.283 10.587 0 10.238 0C9.889 0 9.606 0.283 9.606 0.632V2.878H4C1.794 2.878 0 4.672 0 6.878V34.381C0 36.587 1.794 38.381 4 38.381ZM38.737 34.381C38.737 35.89 37.509 37.118 36 37.118H4C2.491 37.118 1.263 35.89 1.263 34.381V13.404H38.737V34.381ZM29.13 4.141V5.704C28.247 5.934 27.555 6.625 27.325 7.509H12.675C12.445 6.626 11.753 5.934 10.87 5.704V4.141H29.131H29.13ZM29.762 6.878C30.459 6.878 31.025 7.445 31.025 8.141C31.025 8.837 30.458 9.404 29.762 9.404C29.066 9.404 28.499 8.837 28.499 8.141C28.499 7.445 29.066 6.878 29.762 6.878ZM10.238 6.878C10.935 6.878 11.501 7.445 11.501 8.141C11.501 8.837 10.934 9.404 10.238 9.404C9.542 9.404 8.975 8.837 8.975 8.141C8.975 7.445 9.542 6.878 10.238 6.878ZM4 4.141H9.606V5.704C8.519 5.986 7.711 6.967 7.711 8.14C7.711 9.533 8.844 10.666 10.237 10.666C11.411 10.666 12.391 9.858 12.674 8.771H27.324C27.606 9.858 28.587 10.666 29.761 10.666C31.154 10.666 32.287 9.533 32.287 8.14C32.287 6.967 31.479 5.986 30.392 5.704V4.141H35.998C37.507 4.141 38.735 5.369 38.735 6.878V12.141H1.263V6.878C1.263 5.369 2.491 4.141 4 4.141Z" fill="#FAFAFA"/>
    <path d="M5.684 33.328H10.169C10.518 33.328 10.801 33.045 10.801 32.696C10.801 32.347 10.518 32.064 10.169 32.064H5.684C5.335 32.064 5.052 32.347 5.052 32.696C5.052 33.045 5.335 33.328 5.684 33.328Z" fill="#FAFAFA"/>
    <path d="M17.758 18.4569H22.242C22.591 18.4569 22.874 18.1739 22.874 17.8249C22.874 17.4759 22.591 17.1929 22.242 17.1929H17.758C17.409 17.1929 17.126 17.4759 17.126 17.8249C17.126 18.1739 17.409 18.4569 17.758 18.4569Z" fill="#FAFAFA"/>
    <path d="M17.758 33.328H22.242C22.591 33.328 22.874 33.045 22.874 32.696C22.874 32.347 22.591 32.064 22.242 32.064H17.758C17.409 32.064 17.126 32.347 17.126 32.696C17.126 33.045 17.409 33.328 17.758 33.328Z" fill="#FAFAFA"/>
    <path d="M29.832 18.4569H34.316C34.665 18.4569 34.948 18.1739 34.948 17.8249C34.948 17.4759 34.665 17.1929 34.316 17.1929H29.832C29.483 17.1929 29.2 17.4759 29.2 17.8249C29.2 18.1739 29.483 18.4569 29.832 18.4569Z" fill="#FAFAFA"/>
    <path d="M29.832 25.8929H34.316C34.665 25.8929 34.948 25.6099 34.948 25.2609C34.948 24.9119 34.665 24.6289 34.316 24.6289H29.832C29.483 24.6289 29.2 24.9119 29.2 25.2609C29.2 25.6099 29.483 25.8929 29.832 25.8929Z" fill="#FAFAFA"/>
    <path d="M29.832 33.328H34.316C34.665 33.328 34.948 33.045 34.948 32.696C34.948 32.347 34.665 32.064 34.316 32.064H29.832C29.483 32.064 29.2 32.347 29.2 32.696C29.2 33.045 29.483 33.328 29.832 33.328Z" fill="#FAFAFA"/>
    <path d="M7.18299 20.4828V18.4688C7.19599 18.1718 7.03899 17.9318 6.75199 17.8118C6.46599 17.6928 6.17599 17.7548 6.00399 17.9528C5.90299 18.0478 5.68599 18.2298 5.35699 18.4958C4.99899 18.7738 4.72099 18.9658 4.60099 19.0378C4.33999 19.1158 4.16199 19.3038 4.11099 19.5528C4.06499 19.7838 4.12699 20.0068 4.28599 20.1788C4.45499 20.3618 4.68799 20.4308 4.94099 20.3798C4.96099 20.3758 4.98099 20.3698 4.99999 20.3618C5.13599 20.3088 5.27699 20.2388 5.41999 20.1528C5.55999 20.0688 5.67499 19.9888 5.76699 19.9158L5.79099 19.8968C5.79599 20.6658 5.80799 21.6568 5.82699 22.8698C5.85299 24.5198 5.86599 25.7588 5.86599 26.5848C5.86599 26.7748 5.93699 26.9468 6.07299 27.0838C6.20199 27.2138 6.36599 27.2828 6.53899 27.2828C6.55699 27.2828 6.57399 27.2828 6.59099 27.2808C6.77199 27.2668 6.93099 27.1958 7.05299 27.0748C7.18199 26.9448 7.25099 26.7758 7.25099 26.5848C7.25099 25.8488 7.24099 24.7918 7.22199 23.4158C7.20199 22.0428 7.18899 21.0638 7.18299 20.4828Z" fill="#FAFAFA"/>
    <path d="M14.416 19.392C14.222 19.019 13.971 18.711 13.668 18.477C13.277 18.174 12.848 17.979 12.401 17.898C12.185 17.853 11.93 17.832 11.622 17.832C11.074 17.832 10.596 17.952 10.189 18.194C9.80999 18.437 9.50399 18.773 9.28299 19.186C9.08099 19.547 8.93599 19.967 8.85199 20.425C8.75599 20.883 8.70499 21.363 8.69799 21.841C8.68399 22.134 8.68799 22.569 8.70699 23.141C8.72099 23.544 8.74199 23.848 8.76799 24.051C8.86799 24.996 9.09799 25.706 9.47199 26.219C9.75199 26.606 10.087 26.884 10.467 27.046C10.808 27.194 11.207 27.269 11.656 27.269C11.732 27.269 11.809 27.267 11.887 27.262C12.79 27.21 13.49 26.905 13.965 26.353C14.395 25.857 14.681 25.135 14.816 24.199C14.916 23.382 14.95 22.508 14.916 21.595C14.868 20.687 14.7 19.947 14.415 19.391L14.416 19.392ZM11.548 25.886C11.537 25.886 11.394 25.882 11.382 25.882C11.341 25.877 11.283 25.862 11.262 25.862H11.258C11.24 25.853 11.159 25.821 11.14 25.815C11.124 25.809 11.11 25.805 11.096 25.801C11.09 25.797 11.083 25.794 11.077 25.791L10.862 25.684C10.843 25.665 10.817 25.641 10.809 25.634C10.753 25.587 10.713 25.552 10.696 25.531C10.675 25.494 10.655 25.466 10.621 25.427C10.618 25.422 10.615 25.418 10.612 25.414C10.534 25.302 10.473 25.201 10.429 25.11C10.42 25.059 10.401 25.012 10.373 24.971C10.365 24.94 10.352 24.897 10.335 24.842C10.312 24.768 10.289 24.702 10.294 24.736C10.252 24.587 10.219 24.44 10.195 24.297C10.194 24.288 10.18 24.204 10.177 24.195C10.169 24.127 10.16 24.075 10.16 24.075C10.16 24.052 10.158 24.016 10.149 23.925L10.111 23.496C10.092 23.184 10.082 22.869 10.082 22.552C10.082 22.075 10.098 21.647 10.129 21.265C10.129 21.254 10.133 21.215 10.133 21.204C10.134 21.191 10.146 21.058 10.146 21.045C10.164 20.923 10.179 20.832 10.192 20.768C10.228 20.585 10.272 20.416 10.331 20.242C10.351 20.171 10.373 20.107 10.399 20.052C10.408 20.031 10.416 20.008 10.421 19.982C10.424 19.973 10.427 19.964 10.43 19.955C10.458 19.922 10.482 19.882 10.497 19.842C10.497 19.842 10.507 19.818 10.544 19.758C10.553 19.746 10.561 19.733 10.569 19.718C10.571 19.715 10.573 19.712 10.575 19.708C10.627 19.669 10.668 19.618 10.694 19.559C10.698 19.554 10.723 19.526 10.794 19.471C10.807 19.461 10.863 19.426 10.875 19.414C10.882 19.411 10.941 19.374 10.965 19.359C10.969 19.357 10.973 19.355 10.977 19.354C11.009 19.342 11.042 19.326 11.072 19.308C11.078 19.305 11.085 19.301 11.091 19.297L11.093 19.302C11.169 19.286 11.225 19.267 11.288 19.247C11.333 19.247 11.379 19.239 11.424 19.222C11.475 19.219 11.541 19.218 11.62 19.218C11.751 19.218 11.85 19.222 11.875 19.218C11.912 19.23 12.065 19.255 12.104 19.255C12.215 19.283 12.293 19.304 12.397 19.338L12.447 19.344V19.341C12.469 19.353 12.492 19.363 12.514 19.372C12.589 19.407 12.644 19.436 12.622 19.41C12.648 19.436 12.687 19.466 12.722 19.484C12.733 19.499 12.745 19.513 12.759 19.527C12.791 19.559 12.831 19.586 12.876 19.607L12.872 19.615C12.872 19.615 12.913 19.661 12.929 19.679C12.95 19.719 12.981 19.752 13.029 19.779C13.11 19.899 13.168 19.995 13.204 20.079C13.208 20.087 13.22 20.108 13.232 20.128C13.239 20.152 13.248 20.177 13.259 20.2C13.269 20.23 13.281 20.268 13.298 20.312L13.327 20.301C13.327 20.301 13.332 20.307 13.335 20.309C13.345 20.319 13.355 20.328 13.365 20.336C13.379 20.348 13.394 20.359 13.408 20.37L13.336 20.427C13.38 20.549 13.413 20.678 13.43 20.758C13.43 20.799 13.435 20.861 13.459 20.992C13.459 21.032 13.468 21.077 13.482 21.121C13.484 21.146 13.487 21.178 13.49 21.221C13.521 21.488 13.536 21.783 13.536 22.105C13.536 22.535 13.523 22.966 13.504 23.351C13.496 23.394 13.487 23.466 13.483 23.568L13.475 23.752C13.475 23.752 13.444 23.968 13.443 23.971C13.411 24.173 13.383 24.338 13.36 24.456C13.326 24.61 13.283 24.755 13.232 24.887C13.216 24.919 13.203 24.951 13.196 24.975C13.187 24.993 13.179 25.014 13.172 25.037C13.155 25.074 13.13 25.124 13.105 25.172L12.995 25.354C12.988 25.363 12.976 25.377 12.964 25.396L12.794 25.563C12.794 25.563 12.785 25.568 12.781 25.571C12.663 25.648 12.57 25.708 12.498 25.751C12.491 25.753 12.484 25.755 12.477 25.758L12.38 25.793C12.312 25.815 12.261 25.831 12.273 25.833C12.237 25.833 12.132 25.842 12.097 25.853C12.052 25.853 11.993 25.857 11.853 25.882L11.544 25.889L11.548 25.886Z" fill="#FAFAFA"/>
    <path d="M18.724 23.4868C18.604 23.3668 18.494 23.2808 18.38 23.2178C18.188 23.1188 17.935 23.0578 17.621 23.0338C17.447 23.0268 17.166 23.0258 16.725 23.0318L16.734 23.2808L16.656 23.0338C16.558 23.0338 16.464 23.0738 16.392 23.1478C16.3 23.2408 16.281 23.3408 16.281 23.4088C16.281 23.8998 16.279 24.3238 16.273 24.6838C16.268 25.4538 16.265 25.8708 16.265 25.9358C16.265 26.0958 16.267 26.3318 16.273 26.6428C16.273 26.7508 16.316 26.8488 16.38 26.9038C16.452 26.9778 16.548 27.0178 16.652 27.0178H17.273C17.535 27.0178 17.728 27.0098 17.853 26.9968C18.084 26.9708 18.285 26.9118 18.449 26.8248C18.643 26.7218 18.804 26.5658 18.924 26.3648C19.048 26.1658 19.133 25.9248 19.177 25.6468C19.182 25.6118 19.187 25.5748 19.19 25.5358C19.192 25.5248 19.194 25.5138 19.195 25.5028C19.225 25.1918 19.23 24.9108 19.211 24.6668C19.185 24.3348 19.112 24.0588 18.994 23.8438C18.922 23.7118 18.83 23.5918 18.724 23.4868ZM18.024 26.1938C18.04 26.1868 18.068 26.1768 18.104 26.1748C18.081 26.1778 18.05 26.1858 18.024 26.1938ZM18.3 25.9458C18.292 25.9618 18.276 25.9828 18.255 26.0098C18.239 26.0308 18.227 26.0528 18.218 26.0758L18.208 26.0698C18.198 26.0808 18.179 26.0958 18.152 26.1178C18.138 26.1258 18.123 26.1348 18.115 26.1408C18.084 26.1598 18.06 26.1718 18.022 26.1908C18.011 26.1948 18.001 26.1988 17.993 26.2018C17.934 26.2198 17.87 26.2318 17.801 26.2428C17.775 26.2428 17.746 26.2458 17.711 26.2518C17.669 26.2558 17.633 26.2588 17.591 26.2588C17.544 26.2618 17.458 26.2628 17.332 26.2628H17.02C17.018 26.0068 17.02 25.7168 17.023 25.3918C17.023 25.1718 17.025 24.9688 17.029 24.7818C17.033 24.5928 17.035 24.3748 17.035 24.1308L17.037 23.7838C17.188 23.7818 17.304 23.7808 17.384 23.7808C17.546 23.7808 17.543 23.7808 17.701 23.7958C17.722 23.8018 17.74 23.8038 17.762 23.8028C17.814 23.8128 17.854 23.8218 17.904 23.8308C17.918 23.8378 17.932 23.8448 17.947 23.8498C17.958 23.8558 17.97 23.8608 17.982 23.8658C18.012 23.8798 18.035 23.8928 18.034 23.8868L18.081 23.9208C18.093 23.9328 18.108 23.9438 18.123 23.9538C18.126 23.9558 18.13 23.9588 18.133 23.9608C18.172 23.9978 18.209 24.0358 18.243 24.0738C18.252 24.0848 18.261 24.0948 18.268 24.1038C18.283 24.1268 18.296 24.1488 18.3 24.1558C18.311 24.1728 18.332 24.2158 18.365 24.2808L18.37 24.2788C18.374 24.2858 18.378 24.2918 18.382 24.2988C18.382 24.3228 18.385 24.3468 18.392 24.3698C18.415 24.4478 18.427 24.4838 18.429 24.4708C18.429 24.4888 18.441 24.5398 18.445 24.5568C18.445 24.5778 18.447 24.5978 18.452 24.6188L18.454 24.6378C18.473 24.8288 18.472 25.0718 18.454 25.3308C18.45 25.3508 18.447 25.3788 18.444 25.4238C18.44 25.4428 18.436 25.4758 18.436 25.4938C18.432 25.5108 18.427 25.5348 18.425 25.5688C18.423 25.5768 18.406 25.6358 18.383 25.7308C18.369 25.7738 18.358 25.8098 18.347 25.8378C18.341 25.8488 18.336 25.8588 18.332 25.8788C18.332 25.8788 18.332 25.8808 18.332 25.8818C18.328 25.8908 18.301 25.9438 18.301 25.9448L18.3 25.9458Z" fill="#FAFAFA"/>
    <path d="M24.082 23.9797C24.082 23.9797 24.075 23.9757 24.071 23.9737C23.99 23.9297 23.896 23.9207 23.804 23.9377C23.697 23.9607 23.61 24.0247 23.551 24.1307C23.47 24.3037 23.398 24.4597 23.336 24.5967C23.304 24.6647 23.257 24.7697 23.197 24.9077L22.949 25.4707L22.945 25.4617C22.833 25.1907 22.711 24.9027 22.584 24.6087C22.541 24.5027 22.474 24.3437 22.392 24.1617C22.373 24.0997 22.318 23.9867 22.154 23.9357C22.047 23.9017 21.939 23.9187 21.844 23.9807C21.762 24.0347 21.705 24.1097 21.681 24.1977C21.678 24.2097 21.687 24.2247 21.685 24.2367C21.666 24.1927 21.639 24.1517 21.603 24.1147C21.524 24.0357 21.421 23.9987 21.321 24.0077C21.227 24.0147 21.144 24.0507 21.082 24.1097C20.994 24.0667 20.899 24.0357 20.8 24.0147C20.607 23.9797 20.416 23.9877 20.234 24.0397C20.048 24.0917 19.881 24.1837 19.736 24.3127C19.57 24.4617 19.447 24.6477 19.369 24.8657C19.296 25.0707 19.26 25.2887 19.263 25.5127C19.266 25.7657 19.328 26.0077 19.45 26.2307C19.575 26.4597 19.75 26.6387 19.972 26.7607C20.196 26.8837 20.436 26.9287 20.673 26.8957C20.803 26.8807 20.932 26.8447 21.059 26.7867C21.063 26.7917 21.068 26.7967 21.073 26.8017C21.143 26.8737 21.234 26.9127 21.333 26.9127C21.343 26.9127 21.354 26.9127 21.365 26.9127C21.453 26.9047 21.535 26.8687 21.603 26.8057C21.677 26.7347 21.717 26.6387 21.717 26.5337C21.709 25.6037 21.706 25.0467 21.709 24.8557C21.709 24.7687 21.711 24.6377 21.715 24.4817L21.744 24.5487C21.765 24.6017 21.782 24.6407 21.786 24.6457L21.845 24.7847H21.848C21.854 24.8037 21.862 24.8217 21.867 24.8357L22.045 25.2607C22.171 25.5637 22.29 25.8517 22.404 26.1187C22.44 26.2077 22.482 26.3057 22.529 26.4127C22.505 26.4617 22.489 26.4987 22.491 26.4987C22.476 26.5257 22.441 26.6017 22.384 26.7227L22.26 26.9807C22.256 26.9877 22.252 26.9937 22.248 27.0007C22.242 27.0087 22.237 27.0167 22.232 27.0247C22.187 27.1067 22.174 27.2007 22.195 27.2957C22.218 27.4067 22.287 27.4947 22.377 27.5397C22.435 27.5717 22.498 27.5877 22.564 27.5877C22.589 27.5877 22.616 27.5857 22.642 27.5797C22.746 27.5587 22.834 27.4977 22.894 27.3957C22.951 27.2917 23.028 27.1317 23.128 26.9167L23.412 26.2947C23.443 26.2217 23.491 26.1107 23.557 25.9657L23.705 25.6327C23.737 25.5647 23.783 25.4587 23.847 25.3167L23.984 25.0067C24.104 24.7437 24.178 24.5827 24.191 24.5527C24.203 24.5347 24.214 24.5097 24.223 24.4847C24.267 24.4027 24.279 24.3107 24.258 24.2177C24.235 24.1157 24.174 24.0337 24.083 23.9807L24.082 23.9797ZM20.581 26.1477C20.569 26.1477 20.562 26.1437 20.539 26.1477H20.469C20.433 26.1377 20.407 26.1307 20.388 26.1247C20.383 26.1217 20.378 26.1197 20.373 26.1187C20.355 26.1077 20.332 26.0967 20.329 26.0947C20.312 26.0847 20.297 26.0757 20.283 26.0687C20.273 26.0577 20.261 26.0487 20.243 26.0397L20.16 25.9517C20.138 25.9227 20.121 25.8997 20.097 25.8527L20.09 25.8567C20.087 25.8367 20.081 25.8187 20.073 25.7997C20.061 25.7707 20.052 25.7417 20.04 25.6877C20.038 25.6747 20.036 25.6627 20.033 25.6517C20.032 25.6407 20.029 25.6297 20.026 25.6187C20.02 25.5567 20.016 25.5137 20.016 25.4867C20.016 25.4617 20.02 25.4227 20.025 25.3707C20.028 25.3557 20.032 25.3077 20.032 25.2927L20.064 25.1577C20.067 25.1417 20.079 25.1157 20.055 25.1447C20.068 25.1297 20.08 25.1097 20.09 25.0887C20.103 25.0697 20.114 25.0487 20.12 25.0287C20.126 25.0177 20.133 25.0067 20.142 24.9917C20.165 24.9717 20.184 24.9477 20.197 24.9217L20.244 24.8717C20.251 24.8657 20.259 24.8597 20.265 24.8537V24.8517C20.272 24.8467 20.28 24.8417 20.287 24.8357L20.331 24.8107C20.347 24.8037 20.363 24.7957 20.38 24.7867C20.383 24.7867 20.387 24.7837 20.391 24.7827C20.422 24.7677 20.461 24.7577 20.488 24.7537C20.496 24.7537 20.574 24.7447 20.582 24.7437C20.595 24.7477 20.613 24.7507 20.63 24.7517C20.638 24.7547 20.646 24.7567 20.653 24.7577L20.751 24.7907H20.754C20.763 24.7957 20.776 24.8037 20.791 24.8107C20.803 24.8197 20.816 24.8277 20.83 24.8337C20.845 24.8507 20.859 24.8657 20.873 24.8767C20.873 24.8767 20.891 24.8937 20.906 24.9067C20.921 24.9327 20.938 24.9617 20.953 24.9847C20.95 25.2167 20.951 25.5367 20.957 25.9517L20.912 25.9927L20.882 26.0227C20.867 26.0307 20.853 26.0397 20.84 26.0487C20.809 26.0687 20.779 26.0847 20.751 26.0987C20.737 26.1037 20.725 26.1087 20.714 26.1147C20.702 26.1217 20.653 26.1317 20.642 26.1387C20.621 26.1387 20.601 26.1417 20.582 26.1467L20.581 26.1477ZM19.942 25.9027L19.999 25.9007L19.874 25.9627L19.943 25.9027H19.942Z" fill="#FAFAFA"/>
  </g>
  <defs>
    <clipPath id="clip0_7_220">
      <rect width="40" height="38.381" fill="white"/>
    </clipPath>
  </defs>
</svg>