<svg xmlns="http://www.w3.org/2000/svg" width="40" height="38" viewBox="0 0 40 38" fill="none">
  <g clip-path="url(#clip0_7_256)">
    <path d="M34.187 20.4002L26.494 17.6202C26.171 17.4882 25.815 17.4882 25.517 17.6112L17.774 20.4102C17.105 20.6842 17.111 21.6302 17.774 21.8992L20.146 22.8672V26.6972C20.146 27.3872 20.555 28.0102 21.188 28.2862C22.652 28.9242 24.181 29.2432 25.767 29.2432C27.362 29.2432 29.015 28.9202 30.711 28.2742C31.382 28.0192 31.833 27.3682 31.833 26.6542V22.8702L34.212 21.8992C34.865 21.6332 34.9 20.6912 34.187 20.4002ZM30.569 26.6542C30.569 26.8472 30.445 27.0232 30.261 27.0942C27.198 28.2612 24.316 28.2722 21.693 27.1292C21.521 27.0542 21.409 26.8852 21.409 26.6982V23.3842L25.493 25.0502C25.816 25.1822 26.171 25.1812 26.493 25.0502L30.57 23.3862L30.569 26.6542ZM25.969 23.8802C25.882 23.8442 18.969 21.0232 19.355 21.1812L25.945 18.7992C25.945 18.7992 25.951 18.7992 25.957 18.7992C25.981 18.7992 26.032 18.8012 26.039 18.7992L32.626 21.1792L25.969 23.8802Z" fill="#FAFAFA"/>
    <path d="M40 3.158C40 1.417 38.583 0 36.842 0H3.158C1.417 0 0 1.417 0 3.158V34.034C0 35.775 1.417 37.192 3.158 37.192H36.842C38.583 37.192 40 35.775 40 34.034V3.158ZM3.158 1.263H36.842C37.887 1.263 38.737 2.113 38.737 3.158V9.688H36.297C35.771 9.688 35.322 9.295 35.254 8.773L35.11 7.689C34.958 6.543 33.973 5.68 32.817 5.68H26.497C25.339 5.68 24.351 6.546 24.198 7.694L24.055 8.774C23.986 9.295 23.537 9.688 23.011 9.688H1.263V3.158C1.263 2.113 2.113 1.263 3.158 1.263ZM38.737 34.034C38.737 35.079 37.887 35.929 36.842 35.929H3.158C2.113 35.929 1.263 35.079 1.263 34.034V10.952H23.012C24.169 10.952 25.156 10.087 25.308 8.94L25.451 7.86C25.52 7.337 25.97 6.943 26.497 6.943H32.817C33.341 6.943 33.789 7.335 33.857 7.855L34.001 8.939C34.153 10.086 35.14 10.951 36.297 10.951H38.737V34.034Z" fill="#FAFAFA"/>
    <path d="M18.766 7.78776C20.043 7.78776 21.082 6.74876 21.082 5.47176C21.082 4.19476 20.043 3.15576 18.766 3.15576C17.489 3.15576 16.45 4.19476 16.45 5.47176C16.45 6.74876 17.489 7.78776 18.766 7.78776ZM18.766 4.41876C19.347 4.41876 19.819 4.89076 19.819 5.47176C19.819 6.06176 19.357 6.52476 18.766 6.52476C18.185 6.52476 17.713 6.05276 17.713 5.47176C17.713 4.89076 18.185 4.41876 18.766 4.41876Z" fill="#FAFAFA"/>
    <path d="M12.332 7.78776C13.609 7.78776 14.647 6.74876 14.647 5.47176C14.647 4.19476 13.608 3.15576 12.332 3.15576C11.056 3.15576 10.016 4.19476 10.016 5.47176C10.016 6.74876 11.055 7.78776 12.332 7.78776ZM12.332 4.41876C12.912 4.41876 13.384 4.89076 13.384 5.47176C13.384 6.05276 12.912 6.52476 12.332 6.52476C11.742 6.52476 11.279 6.06276 11.279 5.47176C11.279 4.89076 11.751 4.41876 12.332 4.41876Z" fill="#FAFAFA"/>
    <path d="M5.89797 7.78776C7.17497 7.78776 8.21397 6.74876 8.21397 5.47176C8.21397 4.19476 7.17497 3.15576 5.89797 3.15576C4.62097 3.15576 3.58197 4.19476 3.58197 5.47176C3.58197 6.74876 4.62097 7.78776 5.89797 7.78776ZM5.89797 4.41876C6.47897 4.41876 6.95097 4.89076 6.95097 5.47176C6.95097 6.05276 6.47897 6.52476 5.89797 6.52476C5.30797 6.52476 4.84497 6.06276 4.84497 5.47176C4.84497 4.89076 5.31697 4.41876 5.89797 4.41876Z" fill="#FAFAFA"/>
    <path d="M15.323 29.4669H13.954V28.6149C13.954 28.2659 13.671 27.9829 13.322 27.9829C12.973 27.9829 12.69 28.2659 12.69 28.6149V29.4669H4.84098C4.49198 29.4669 4.20898 29.7499 4.20898 30.0989C4.20898 30.4479 4.49198 30.7309 4.84098 30.7309H12.69V31.5829C12.69 31.9319 12.973 32.2149 13.322 32.2149C13.671 32.2149 13.954 31.9319 13.954 31.5829V30.7309H15.323C15.672 30.7309 15.955 30.4479 15.955 30.0989C15.955 29.7499 15.672 29.4669 15.323 29.4669Z" fill="#FAFAFA"/>
    <path d="M8.16903 23.5891L12.376 21.0621C13.614 20.3181 13.616 18.5231 12.376 17.7781L8.16803 15.2511C6.89503 14.4861 5.26703 15.4011 5.26703 16.8931V21.9461C5.26703 23.4331 6.88803 24.3561 8.16903 23.5881V23.5891ZM6.53003 16.8941C6.53003 16.3911 7.07903 16.0711 7.51803 16.3351L11.725 18.8621C12.148 19.1161 12.147 19.7271 11.725 19.9801L7.51803 22.5071C7.22303 22.6831 6.96003 22.5721 6.86103 22.5151C6.76103 22.4591 6.53003 22.2901 6.53003 21.9481V16.8951V16.8941Z" fill="#FAFAFA"/>
    <path d="M7.51803 16.335C7.07903 16.071 6.53003 16.391 6.53003 16.894V16.895V21.948C6.53003 22.29 6.76103 22.459 6.86103 22.515C6.96003 22.572 7.22303 22.683 7.51803 22.507L11.725 19.98C12.147 19.727 12.148 19.116 11.725 18.862L7.51803 16.335Z" fill="#AEFC65"/>
  </g>
  <defs>
    <clipPath id="clip0_7_256">
      <rect width="40" height="37.192" fill="white"/>
    </clipPath>
  </defs>
</svg>