<svg xmlns="http://www.w3.org/2000/svg" width="40" height="40" viewBox="0 0 40 40" fill="none">
  <g clip-path="url(#clip0_7_285)">
    <path d="M27.642 15.957C21.183 15.957 15.937 21.203 15.937 27.662C15.937 34.121 21.183 39.367 27.642 39.367C34.101 39.367 39.347 34.129 39.347 27.662C39.347 21.195 34.109 15.957 27.642 15.957ZM32.401 26.479C31.873 27.007 31.02 27.007 30.492 26.479L28.996 24.99V33.612C28.996 34.356 28.394 34.966 27.642 34.966C26.898 34.966 26.288 34.357 26.288 33.612V24.997L24.806 26.486C24.542 26.75 24.19 26.885 23.845 26.885C23.5 26.885 23.155 26.75 22.891 26.486C22.363 25.958 22.363 25.099 22.891 24.571L26.695 20.768C27.223 20.24 28.082 20.24 28.61 20.768L32.4 24.565C32.935 25.093 32.935 25.952 32.4 26.48L32.401 26.479Z" fill="#00BFC5"/>
    <path d="M24.778 5.08984H11.112V10.8258H24.778V5.08984Z" fill="#00BFC5"/>
    <path d="M4.649 40H27.646C27.646 40 27.65 39.999 27.653 39.999C34.45 39.993 39.979 34.462 39.979 27.663C39.979 21.666 35.676 16.66 29.996 15.557V2.316C29.996 1.039 28.957 0 27.68 0H4C1.794 0 0 1.794 0 4V35.352C0 37.922 2.079 40 4.649 40ZM38.715 27.663C38.715 33.769 33.747 38.736 27.641 38.736C21.535 38.736 16.568 33.769 16.568 27.663C16.568 21.557 21.535 16.589 27.641 16.589C33.747 16.589 38.715 21.557 38.715 27.663ZM28.733 2.316V15.381C28.373 15.349 28.01 15.326 27.642 15.326C20.839 15.326 15.306 20.861 15.306 27.663C15.306 28.714 15.452 29.729 15.701 30.703H7.158V1.263H27.68C28.261 1.263 28.733 1.735 28.733 2.316ZM1.263 4C1.263 2.491 2.491 1.263 4 1.263H5.895V30.703H4.649C3.314 30.703 2.112 31.272 1.263 32.176V4ZM4.649 31.966H16.095C16.463 32.949 16.946 33.874 17.539 34.721H6.891C6.542 34.721 6.259 35.004 6.259 35.353C6.259 35.702 6.542 35.985 6.891 35.985H18.561C19.6 37.118 20.845 38.054 22.24 38.737H4.649C2.79 38.737 1.263 37.233 1.263 35.352C1.263 33.485 2.782 31.966 4.649 31.966Z" fill="#FAFAFA"/>
    <path d="M11.113 11.456H24.779C25.128 11.456 25.411 11.173 25.411 10.824V5.08903C25.411 4.74003 25.128 4.45703 24.779 4.45703H11.113C10.764 4.45703 10.481 4.74003 10.481 5.08903V10.824C10.481 11.173 10.764 11.456 11.113 11.456ZM11.744 5.72103H24.147V10.193H11.744V5.72103Z" fill="#FAFAFA"/>
    <path d="M22.442 24.1212C21.667 24.8952 21.667 26.1562 22.442 26.9292C23.194 27.6822 24.504 27.6772 25.251 26.9292L25.654 26.5242V33.6102C25.654 34.7052 26.545 35.5952 27.639 35.5952C28.733 35.5952 29.624 34.7042 29.624 33.6102V26.5082L30.042 26.9232C30.792 27.6722 32.095 27.6732 32.843 26.9232C33.631 26.1422 33.62 24.8822 32.845 24.1142L29.054 20.3172C28.279 19.5422 27.02 19.5432 26.246 20.3172L22.443 24.1202L22.442 24.1212ZM28.16 21.2112L31.954 25.0102C32.238 25.2902 32.239 25.7462 31.954 26.0272L31.952 26.0292C31.672 26.3092 31.217 26.3092 30.936 26.0292L29.44 24.5412C29.039 24.1442 28.363 24.4302 28.363 24.9882V33.6102C28.363 34.0082 28.039 34.3322 27.641 34.3322C27.243 34.3322 26.919 34.0082 26.919 33.6102V24.9952C26.919 24.4282 26.232 24.1552 25.84 24.5492L24.359 26.0372C24.088 26.3082 23.614 26.3152 23.337 26.0372C23.055 25.7552 23.055 25.2972 23.337 25.0152L27.14 21.2122C27.421 20.9312 27.88 20.9312 28.161 21.2122L28.16 21.2112Z" fill="#FAFAFA"/>
  </g>
  <defs>
    <clipPath id="clip0_7_285">
      <rect width="39.979" height="40" fill="white"/>
    </clipPath>
  </defs>
</svg>