<svg xmlns="http://www.w3.org/2000/svg" width="40" height="40" viewBox="0 0 40 40" fill="none">
  <g clip-path="url(#clip0_7_235)">
    <path d="M10.197 17.2966C9.56702 17.2966 9.13802 16.6186 9.44602 16.0686C10.266 14.6076 11.83 13.6196 13.631 13.6196C15.432 13.6196 16.986 14.6076 17.805 16.0676C18.113 16.6166 17.684 17.2956 17.054 17.2956H10.196L10.197 17.2966Z" fill="#00BFC5"/>
    <path d="M15.67 11.5788C15.67 12.7058 14.755 13.6208 13.628 13.6208C12.495 13.6208 11.58 12.7058 11.58 11.5788C11.58 10.4458 12.495 9.53076 13.628 9.53076C14.755 9.53076 15.67 10.4458 15.67 11.5788Z" fill="#00BFC5"/>
    <path d="M36.627 26.3869C36.627 27.2219 35.513 27.8319 35.217 28.5629C34.895 29.3199 35.243 30.5389 34.669 31.1129C34.512 31.2869 34.286 31.3649 34.034 31.4259C33.799 31.4699 33.547 31.4779 33.286 31.4869C32.868 31.5039 32.459 31.5129 32.128 31.6439C31.554 31.8879 31.058 32.6189 30.466 32.9319C30.301 33.0189 30.127 33.0709 29.944 33.0709C29.761 33.0709 29.587 33.0189 29.422 32.9319C28.839 32.6189 28.334 31.8789 27.76 31.6439C27.429 31.5129 27.02 31.5049 26.603 31.4869C26.342 31.4779 26.089 31.4609 25.854 31.4169C25.602 31.3649 25.384 31.2859 25.219 31.1119C24.645 30.5379 24.993 29.3189 24.679 28.5619C24.374 27.8309 23.26 27.2219 23.26 26.3859C23.26 25.5419 24.374 24.9329 24.679 24.2009C24.992 23.4439 24.644 22.2169 25.219 21.6419C25.785 21.0849 27.003 21.4329 27.76 21.1109C28.5 20.8059 29.109 19.6919 29.944 19.6919C30.788 19.6919 31.397 20.8059 32.129 21.1109C32.886 21.4329 34.105 21.0849 34.67 21.6419C35.244 22.2159 34.896 23.4439 35.218 24.2009C35.514 24.9319 36.628 25.5409 36.628 26.3859L36.627 26.3869Z" fill="#00BFC5"/>
    <path d="M4 29.069H24.159C24.189 29.257 24.199 29.477 24.208 29.696C24.256 30.935 24.48 31.779 25.737 32.038C25.813 32.052 25.892 32.058 25.969 32.068V39.303C25.969 39.848 26.61 40.131 27.013 39.781L29.935 37.256L32.872 39.782C33.282 40.134 33.916 39.841 33.916 39.303V32.074C34.004 32.064 34.089 32.057 34.181 32.04C35.406 31.745 35.627 30.953 35.679 29.709C35.688 29.482 35.708 29.265 35.743 29.07H36.001C38.207 29.07 40.001 27.276 40.001 25.07V4C40.001 1.794 38.207 0 36.001 0H4C1.794 0 0 1.794 0 4V25.069C0 27.275 1.794 29.069 4 29.069ZM30.346 35.943C30.109 35.739 29.758 35.739 29.521 35.944L27.232 37.922V32.169C27.337 32.184 27.443 32.198 27.519 32.228C27.717 32.309 27.966 32.543 28.207 32.768C29.495 33.976 30.29 34.076 31.693 32.76C31.93 32.538 32.175 32.309 32.359 32.23C32.437 32.199 32.545 32.185 32.653 32.17V37.926L30.346 35.943ZM34.417 29.655C34.367 30.824 34.295 30.82 33.182 30.859C31.965 30.908 31.681 31.041 30.83 31.838C29.976 32.638 29.904 32.626 29.071 31.847C28.747 31.543 28.411 31.228 27.99 31.056C27.58 30.894 27.135 30.876 26.627 30.855C26.626 30.855 26.625 30.855 26.624 30.855C26.395 30.847 26.174 30.834 25.982 30.798C25.539 30.706 25.507 30.551 25.472 29.647C25.425 28.424 25.289 28.123 24.489 27.268C23.696 26.419 23.697 26.345 24.492 25.493C25.288 24.639 25.424 24.342 25.471 23.113C25.514 21.988 25.524 21.955 26.654 21.911C27.871 21.864 28.191 21.732 29.064 20.918C29.911 20.13 29.984 20.13 30.837 20.925C31.645 21.679 31.95 21.861 33.233 21.911C34.352 21.954 34.37 21.979 34.416 23.105C34.469 24.327 34.603 24.637 35.4 25.496C36.192 26.349 36.186 26.42 35.403 27.262C34.621 28.101 34.468 28.408 34.416 29.653L34.417 29.655ZM32.087 20.347C31.961 20.247 31.829 20.126 31.699 20.004C30.291 18.691 29.495 18.794 28.203 19.996C27.559 20.596 27.51 20.616 26.604 20.651C24.848 20.719 24.281 21.203 24.208 23.067C24.201 23.248 24.193 23.431 24.174 23.595H9.77C9.485 21.364 7.708 19.59 5.473 19.306V9.769C7.709 9.484 9.485 7.708 9.77 5.472H30.229C30.514 7.708 32.29 9.484 34.526 9.769V19.305C33.626 19.418 32.792 19.784 32.086 20.347H32.087ZM1.263 4C1.263 2.491 2.491 1.263 4 1.263H36C37.509 1.263 38.737 2.491 38.737 4V25.069C38.737 26.334 37.87 27.391 36.701 27.703C37.642 26.551 37.315 25.703 36.326 24.638C35.744 24.011 35.716 23.955 35.679 23.053C35.625 21.758 35.365 20.918 34.037 20.716C34.396 20.602 34.77 20.528 35.159 20.528C35.508 20.528 35.791 20.245 35.791 19.896V9.176C35.791 8.827 35.508 8.544 35.159 8.544C33.115 8.544 31.453 6.882 31.453 4.839C31.453 4.49 31.17 4.207 30.821 4.207H9.179C8.83 4.207 8.547 4.49 8.547 4.839C8.547 6.882 6.885 8.544 4.841 8.544C4.492 8.544 4.209 8.827 4.209 9.176V19.896C4.209 20.245 4.492 20.528 4.841 20.528C6.885 20.528 8.547 22.186 8.547 24.225C8.547 24.574 8.83 24.857 9.179 24.857H23.361C22.452 25.87 22.344 26.733 23.269 27.806H4C2.491 27.806 1.263 26.578 1.263 25.069V4Z" fill="#FAFAFA"/>
    <path d="M15.601 13.3679C16.032 12.8929 16.302 12.2689 16.302 11.5789C16.302 10.1019 15.103 8.8999 13.628 8.8999C12.153 8.8999 10.948 10.1019 10.948 11.5789C10.948 12.2699 11.219 12.8949 11.652 13.3699C10.503 13.8209 9.51801 14.6509 8.89601 15.7599C8.64501 16.2069 8.65201 16.7409 8.91401 17.1899C9.18101 17.6459 9.67301 17.9289 10.198 17.9289H17.056C17.581 17.9279 18.072 17.6439 18.34 17.1889C18.602 16.7409 18.609 16.2059 18.358 15.7599C17.735 14.6499 16.75 13.8199 15.602 13.3689L15.601 13.3679ZM12.211 11.5789C12.211 10.7979 12.847 10.1629 13.628 10.1629C14.409 10.1629 15.038 10.7979 15.038 11.5789C15.038 12.3519 14.413 12.9809 13.641 12.9879C13.638 12.9879 13.634 12.9879 13.631 12.9879C13.626 12.9879 13.622 12.9879 13.617 12.9879C12.841 12.9819 12.211 12.3529 12.211 11.5779V11.5789ZM17.248 16.5499C17.232 16.5769 17.172 16.6639 17.055 16.6639H10.197C10.079 16.6649 10.019 16.5779 10.004 16.5509C9.96901 16.4909 9.96601 16.4329 9.99701 16.3779C10.731 15.0699 12.117 14.2569 13.617 14.2519C13.621 14.2519 13.624 14.2529 13.628 14.2529C13.633 14.2529 13.637 14.2519 13.642 14.2519C15.137 14.2559 16.521 15.0689 17.255 16.3779C17.286 16.4329 17.284 16.4909 17.248 16.5509V16.5499Z" fill="#FAFAFA"/>
    <path d="M28.593 8.28809H21.401C21.052 8.28809 20.769 8.57109 20.769 8.92009C20.769 9.26909 21.052 9.55209 21.401 9.55209H28.593C28.942 9.55209 29.225 9.26909 29.225 8.92009C29.225 8.57109 28.942 8.28809 28.593 8.28809Z" fill="#FAFAFA"/>
    <path d="M28.593 12.4771H21.401C21.052 12.4771 20.769 12.7601 20.769 13.1091C20.769 13.4581 21.052 13.7411 21.401 13.7411H28.593C28.942 13.7411 29.225 13.4581 29.225 13.1091C29.225 12.7601 28.942 12.4771 28.593 12.4771Z" fill="#FAFAFA"/>
    <path d="M28.593 16.665H21.401C21.052 16.665 20.769 16.948 20.769 17.297C20.769 17.646 21.052 17.929 21.401 17.929H28.593C28.942 17.929 29.225 17.646 29.225 17.297C29.225 16.948 28.942 16.665 28.593 16.665Z" fill="#FAFAFA"/>
    <path d="M31.601 24.4001L28.975 27.0261L28.283 26.3351C28.035 26.0881 27.636 26.0901 27.39 26.3351C27.143 26.5821 27.143 26.9821 27.39 27.2291L28.528 28.3661C28.774 28.6111 29.173 28.6131 29.421 28.3661L32.493 25.2931C32.74 25.0461 32.74 24.6471 32.493 24.4001C32.246 24.1531 31.848 24.1531 31.601 24.4001Z" fill="#FAFAFA"/>
  </g>
  <defs>
    <clipPath id="clip0_7_235">
      <rect width="40" height="39.935" fill="white"/>
    </clipPath>
  </defs>
</svg>