<svg xmlns="http://www.w3.org/2000/svg" width="40" height="40" viewBox="0 0 40 40" fill="none">
  <g clip-path="url(#clip0_7_272)">
    <path d="M22.693 8.23291H3.33899C1.84099 8.23291 0.627991 9.44491 0.627991 10.9349V36.6439C0.627991 38.1339 1.83999 39.3459 3.33899 39.3459H25.394V10.9349C25.394 9.44491 24.182 8.23291 22.692 8.23291H22.693ZM7.86799 36.3079H3.67599V33.0499H7.86799V36.3079ZM7.86799 30.0109H3.67599V26.7529H7.86799V30.0109ZM7.86799 23.7139H3.67599V20.4649H7.86799V23.7139ZM15.116 36.3079H10.915V33.0499H15.116V36.3079ZM15.116 30.0109H10.915V26.7529H15.116V30.0109ZM15.116 23.7139H10.915V20.4649H15.116V23.7139ZM22.356 36.3079H18.155V33.0499H22.356V36.3079ZM22.356 30.0109H18.155V26.7529H22.356V30.0109ZM22.356 23.7139H18.155V20.4649H22.356V23.7139ZM22.356 17.4169H3.67599V11.2799H22.356V17.4169Z" fill="#AEFC65"/>
    <path d="M22.353 10.646H3.67598C3.32698 10.646 3.04498 10.929 3.04498 11.277V17.417C3.04498 17.766 3.32798 18.048 3.67598 18.048H22.354C22.703 18.048 22.985 17.765 22.985 17.417V11.277C22.985 10.928 22.701 10.646 22.353 10.646ZM21.722 16.786H4.30698V11.909H21.722V16.786Z" fill="#FAFAFA"/>
    <path d="M22.353 19.8291H18.156C17.807 19.8291 17.525 20.1121 17.525 20.4601V23.7121C17.525 24.0611 17.808 24.3431 18.156 24.3431H22.353C22.702 24.3431 22.984 24.0601 22.984 23.7121V20.4601C22.984 20.1111 22.701 19.8291 22.353 19.8291ZM21.722 23.0821H18.788V21.0931H21.722V23.0821Z" fill="#FAFAFA"/>
    <path d="M15.112 19.8291H10.915C10.566 19.8291 10.284 20.1121 10.284 20.4601V23.7121C10.284 24.0611 10.567 24.3431 10.915 24.3431H15.112C15.461 24.3431 15.743 24.0601 15.743 23.7121V20.4601C15.743 20.1111 15.46 19.8291 15.112 19.8291ZM14.481 23.0821H11.547V21.0931H14.481V23.0821Z" fill="#FAFAFA"/>
    <path d="M7.87198 19.8291H3.67598C3.32698 19.8291 3.04498 20.1121 3.04498 20.4601V23.7121C3.04498 24.0611 3.32798 24.3431 3.67598 24.3431H7.87298C8.22198 24.3431 8.50398 24.0601 8.50398 23.7121V20.4601C8.50398 20.1111 8.21998 19.8291 7.87198 19.8291ZM7.24098 23.0821H4.30698V21.0931H7.24098V23.0821Z" fill="#FAFAFA"/>
    <path d="M22.353 26.126H18.156C17.807 26.126 17.525 26.409 17.525 26.757V30.008C17.525 30.357 17.808 30.639 18.156 30.639H22.353C22.702 30.639 22.984 30.356 22.984 30.008V26.757C22.984 26.408 22.701 26.126 22.353 26.126ZM21.722 29.377H18.788V27.388H21.722V29.377Z" fill="#FAFAFA"/>
    <path d="M15.112 26.126H10.915C10.566 26.126 10.284 26.409 10.284 26.757V30.008C10.284 30.357 10.567 30.639 10.915 30.639H15.112C15.461 30.639 15.743 30.356 15.743 30.008V26.757C15.743 26.408 15.46 26.126 15.112 26.126ZM14.481 29.377H11.547V27.388H14.481V29.377Z" fill="#FAFAFA"/>
    <path d="M22.353 32.4209H18.156C17.807 32.4209 17.525 32.7039 17.525 33.0519V36.3039C17.525 36.6529 17.808 36.9349 18.156 36.9349H22.353C22.702 36.9349 22.984 36.6519 22.984 36.3039V33.0519C22.984 32.7029 22.701 32.4209 22.353 32.4209ZM21.722 35.6729H18.788V33.6839H21.722V35.6729Z" fill="#FAFAFA"/>
    <path d="M15.112 32.4209H10.915C10.566 32.4209 10.284 32.7039 10.284 33.0519V36.3039C10.284 36.6529 10.567 36.9349 10.915 36.9349H15.112C15.461 36.9349 15.743 36.6519 15.743 36.3039V33.0519C15.743 32.7029 15.46 32.4209 15.112 32.4209ZM14.481 35.6729H11.547V33.6839H14.481V35.6729Z" fill="#FAFAFA"/>
    <path d="M7.87198 26.126H3.67598C3.32698 26.126 3.04498 26.409 3.04498 26.757V30.008C3.04498 30.357 3.32798 30.639 3.67598 30.639H7.87298C8.22198 30.639 8.50398 30.356 8.50398 30.008V26.757C8.50398 26.408 8.21998 26.126 7.87198 26.126ZM7.24098 29.377H4.30698V27.388H7.24098V29.377Z" fill="#FAFAFA"/>
    <path d="M7.87198 32.4209H3.67598C3.32698 32.4209 3.04498 32.7039 3.04498 33.0519V36.3039C3.04498 36.6529 3.32798 36.9349 3.67598 36.9349H7.87298C8.22198 36.9349 8.50398 36.6519 8.50398 36.3039V33.0519C8.50398 32.7029 8.21998 32.4209 7.87198 32.4209ZM7.24098 35.6729H4.30698V33.6839H7.24098V35.6729Z" fill="#FAFAFA"/>
    <path d="M39.815 9.125L30.884 0.194C30.766 0.076 30.597 0.009 30.429 0.009L13.34 0C11.6 0 10.183 1.416 10.183 3.157V7.603H3.337C1.497 7.603 0 9.1 0 10.94V36.643C0 38.483 1.497 39.98 3.337 39.98C6.766 39.98 -9.074 39.98 36.843 39.978C38.583 39.978 40 38.562 40 36.821V9.571C40 9.445 39.935 9.245 39.815 9.125ZM31.061 2.156L37.845 8.94H32.955C31.911 8.94 31.061 8.09 31.061 7.046V2.156ZM1.263 36.643V10.939C1.263 9.795 2.194 8.865 3.337 8.865H22.691C23.835 8.865 24.765 9.796 24.765 10.939V38.716H3.337C2.193 38.716 1.263 37.785 1.263 36.642V36.643ZM36.843 38.715H26.028V36.397H34.768C35.117 36.397 35.399 36.114 35.399 35.766C35.399 35.418 35.116 35.135 34.768 35.135H26.028V31.875H34.768C35.117 31.875 35.399 31.592 35.399 31.244C35.399 30.896 35.116 30.613 34.768 30.613H26.028V27.353H34.768C35.117 27.353 35.399 27.07 35.399 26.722C35.399 26.374 35.116 26.091 34.768 26.091H26.028V22.831H34.768C35.117 22.831 35.399 22.548 35.399 22.2C35.399 21.852 35.116 21.569 34.768 21.569H26.028V18.309H34.768C35.117 18.309 35.399 18.026 35.399 17.678C35.399 17.33 35.116 17.047 34.768 17.047H26.028V13.787H34.768C35.117 13.787 35.399 13.504 35.399 13.156C35.399 12.808 35.116 12.525 34.768 12.525H26.028V10.942C26.028 9.102 24.531 7.605 22.691 7.605H11.446V3.157C11.446 2.113 12.296 1.263 13.34 1.263L29.798 1.272V7.047C29.798 8.787 31.214 10.204 32.955 10.204H38.738V36.822C38.738 37.866 37.888 38.716 36.844 38.716L36.843 38.715Z" fill="#FAFAFA"/>
  </g>
  <defs>
    <clipPath id="clip0_7_272">
      <rect width="40" height="39.979" fill="white"/>
    </clipPath>
  </defs>
</svg>