<svg xmlns="http://www.w3.org/2000/svg" width="40" height="40" viewBox="0 0 40 40" fill="none">
  <g clip-path="url(#clip0_7_247)">
    <path d="M5.37 19.2829V21.4169H1.948V19.2829C1.948 18.8189 2.324 18.4429 2.788 18.4429H4.529C4.993 18.4429 5.37 18.8189 5.37 19.2829Z" fill="#00BFC5"/>
    <path d="M6.654 25.962L5.37 21.417H1.948L0.664001 25.962C0.512001 26.498 0.915001 27.031 1.473 27.031H5.845C6.402 27.031 6.805 26.498 6.654 25.962Z" fill="#00BFC5"/>
    <path d="M8.799 39.0918C9.022 39.4038 9.462 39.4608 9.757 39.2168L11.326 37.9228C11.632 37.7158 11.709 37.2988 11.497 36.9958L6.415 29.7418C6.204 29.4408 5.788 29.3698 5.489 29.5828L3.778 31.0238C3.514 31.2458 3.465 31.6338 3.666 31.9138L8.799 39.0918Z" fill="#00BFC5"/>
    <path d="M2.78799 17.8108C1.97599 17.8108 1.31599 18.4708 1.31599 19.2828V21.3298L0.0569926 25.7888C-0.209007 26.7288 0.495993 27.6618 1.47299 27.6618H5.84499C6.82099 27.6618 7.52799 26.7308 7.26199 25.7898L6.00099 21.3288V19.2818C6.00099 18.4708 5.34099 17.8098 4.52899 17.8098H4.29099V9.49378L7.78999 10.9218V20.2818C7.78999 21.5408 8.53699 22.6788 9.69499 23.1838C12.954 24.6048 16.363 25.3148 19.898 25.3148C23.469 25.3148 27.17 24.5908 30.973 23.1408C32.2 22.6738 33.024 21.4848 33.024 20.1828V10.9288L39.006 8.48778C39.853 8.14278 39.875 6.93578 38.982 6.57278L21.255 0.166776C20.712 -0.0552245 20.116 -0.0542244 19.598 0.157776L1.82499 6.58278C0.971993 6.92978 0.971993 8.14078 1.82499 8.48778L3.02799 8.97878V17.8098H2.78899L2.78799 17.8108ZM31.761 20.1838C31.761 20.9658 31.263 21.6798 30.524 21.9618C23.273 24.7248 16.434 24.7458 10.199 22.0268C9.50199 21.7238 9.05299 21.0388 9.05299 20.2828V11.4388L19.576 15.7328C19.645 15.7608 19.717 15.7758 19.788 15.7968V19.9438C19.788 20.2928 20.071 20.5758 20.42 20.5758C20.769 20.5758 21.052 20.2928 21.052 19.9438V15.7948C21.12 15.7738 21.189 15.7608 21.256 15.7338L31.762 11.4468V20.1848L31.761 20.1838ZM20.052 1.33678C20.286 1.24178 20.545 1.24178 20.803 1.34578L37.966 7.54878C31.71 10.1018 27.37 11.8728 20.779 14.5628C20.545 14.6578 20.287 14.6578 20.054 14.5628C14.95 12.4798 11.258 10.9728 6.47099 9.01978L18.106 8.19978C18.4 9.20578 19.32 9.94778 20.421 9.94778C21.756 9.94778 22.842 8.86178 22.842 7.52678C22.842 6.19178 21.756 5.10578 20.421 5.10578C19.291 5.10578 18.347 5.88778 18.081 6.93578L3.82499 7.94078L2.86799 7.54978L20.052 1.33678ZM19.26 7.52678C19.26 6.88778 19.78 6.36878 20.419 6.36878C21.058 6.36878 21.577 6.88878 21.577 7.52678C21.577 8.16478 21.057 8.68478 20.419 8.68478C19.781 8.68478 19.26 8.16478 19.26 7.52678ZM6.01199 26.3158C5.98799 26.3468 5.93599 26.3988 5.84499 26.3988H1.47299C1.33499 26.3988 1.23399 26.2678 1.27199 26.1328L2.42599 22.0478H4.89199L6.04699 26.1318C6.07199 26.2188 6.03499 26.2848 6.01199 26.3158ZM4.73799 19.2828V20.7858H2.57899V19.2828C2.57899 19.1678 2.67299 19.0748 2.78799 19.0748C2.90099 19.0748 4.63899 19.0748 4.52899 19.0748C4.64399 19.0748 4.73799 19.1678 4.73799 19.2828Z" fill="#FAFAFA"/>
    <path d="M15.727 36.293L20.543 37.492C22.438 37.962 24.424 37.57 25.994 36.423L33.837 30.694C34.899 29.918 35.139 28.418 34.371 27.35C33.606 26.286 32.11 26.033 31.037 26.788L25.982 30.36C25.755 29.505 25.094 28.804 24.193 28.555L14.815 25.955C13.476 25.584 12.061 25.838 10.934 26.652L7.009 29.491L6.931 29.379C6.54 28.825 5.752 28.616 5.081 29.1L3.371 30.54C2.858 30.971 2.762 31.736 3.151 32.281L8.285 39.459C8.725 40.073 9.588 40.176 10.159 39.704L11.679 38.445C12.233 38.071 12.43 37.32 12.055 36.707C13.184 36.139 14.49 35.984 15.725 36.292L15.727 36.293ZM11.676 27.676C12.489 27.087 13.511 26.904 14.479 27.172L23.857 29.772C24.471 29.942 24.867 30.526 24.799 31.159C24.714 31.958 23.939 32.442 23.273 32.297L17.887 30.664C17.555 30.562 17.201 30.751 17.099 31.085C16.998 31.419 17.186 31.772 17.52 31.873L22.951 33.518C24.129 33.78 25.365 33.203 25.866 31.989L31.766 27.82C32.274 27.461 32.985 27.582 33.347 28.087C33.711 28.594 33.598 29.305 33.094 29.673L25.251 35.403C23.981 36.331 22.375 36.646 20.849 36.265L16.033 35.066C14.447 34.671 12.767 34.891 11.335 35.66L7.738 30.526L11.678 27.676H11.676ZM10.925 37.436L9.334 38.737C9.322 38.735 9.317 38.728 9.314 38.725L4.186 31.507L5.899 30.105L6.35 30.749L10.625 36.851L10.98 37.358L10.924 37.435L10.925 37.436Z" fill="#FAFAFA"/>
    <path d="M27.998 20.5748C28.347 20.5748 28.63 20.2918 28.63 19.9428V15.2658C28.63 14.9168 28.347 14.6338 27.998 14.6338C27.649 14.6338 27.366 14.9168 27.366 15.2658V19.9428C27.366 20.2918 27.649 20.5748 27.998 20.5748Z" fill="#FAFAFA"/>
    <path d="M12.841 14.6338C12.492 14.6338 12.209 14.9168 12.209 15.2658V19.9428C12.209 20.2918 12.492 20.5748 12.841 20.5748C13.19 20.5748 13.473 20.2918 13.473 19.9428V15.2658C13.473 14.9168 13.19 14.6338 12.841 14.6338Z" fill="#FAFAFA"/>
  </g>
  <defs>
    <clipPath id="clip0_7_247">
      <rect width="39.646" height="40" fill="white"/>
    </clipPath>
  </defs>
</svg>