<svg width="141" height="35" viewBox="0 0 141 35" fill="none" xmlns="http://www.w3.org/2000/svg">
<g clip-path="url(#clip0_31_46)">
<path d="M2.9608 8.1696V23.1968L0 27.2392V8.1696H2.9608Z" fill="url(#paint0_linear_31_46)"/>
<path d="M13.9768 10.6832L2.9608 23.6832L0 27.72C0 28.3408 0.3872 28.896 0.9704 29.1096C1.552 29.3216 2.2088 29.1504 2.6088 28.6768L16.3712 12.4368L13.9768 10.6824V10.6832Z" fill="#00BFC5"/>
<path d="M16.1888 8.0728L21.1688 2.1968C21.4496 1.8648 21.8624 1.6736 22.2976 1.6736H30.0792C30.656 1.6736 31.18 2.008 31.4224 2.5312C31.6656 3.0544 31.5816 3.6704 31.2088 4.1104L18.1816 19.484L17.0568 18.1024C16.6064 17.5496 16.6144 16.7544 17.076 16.2104L26.8856 4.6336H22.9848L18.9712 9.3704L16.1896 8.0736L16.1888 8.0728Z" fill="#AEFC65"/>
<path d="M27.0912 30.3976L18.4312 19.7504L20.3776 17.4528L30.0608 29.3552L27.0912 30.3976Z" fill="url(#paint1_linear_31_46)"/>
<path d="M19.9079 8.26349L17.6459 6.34696L12.0183 12.9891L14.2804 14.9056L19.9079 8.26349Z" fill="url(#paint2_linear_31_46)"/>
<path d="M31.3528 30.9432L29.4608 28.6168L26.6192 29.816L27.092 30.3968H23.2688L15.6032 20.936C15.3256 20.5936 14.9096 20.3928 14.4696 20.3872C14.0232 20.3912 13.6088 20.5744 13.324 20.9104L6.9544 28.4264C6.9544 28.4264 6.6576 28.7816 6.1312 28.8672C6.1064 28.8712 6.0904 28.8768 6.0704 28.8824C4.9832 29.0792 4.1568 30.0256 4.1568 31.1696C4.1568 31.7712 4.3912 32.3144 4.7664 32.728C4.8368 32.828 4.916 32.9224 5.0136 33.0056C5.1672 33.136 5.3392 33.2256 5.5192 33.2832C5.8144 33.4184 6.14 33.4992 6.4856 33.4992C7.7568 33.4992 8.7864 32.4792 8.8104 31.2136C8.8464 30.8352 9.024 30.5688 9.1232 30.4464L14.4272 24.188L21.412 32.8088C21.6936 33.156 22.1152 33.3576 22.5624 33.3576H30.2056C30.7768 33.3576 31.2968 33.0288 31.5432 32.5128C31.788 31.9968 31.7136 31.3856 31.3528 30.9432Z" fill="#AEFC65"/>
<path d="M14.0424 1.5C12.7712 1.5 11.7416 2.52 11.7176 3.7848C11.6816 4.164 11.5032 4.4296 11.4048 4.552L11.3472 4.6208L11.3384 4.6304L8.8976 7.5248V3.1536C8.8976 2.336 8.2344 1.6736 7.4176 1.6736H1.48C0.6632 1.6728 0 2.336 0 3.1536V9.1304H2.9608V4.6336H5.9376V11.5776C5.9376 12.1992 6.3256 12.7544 6.9096 12.968C7.4936 13.1816 8.1496 13.0088 8.5496 12.532L13.5736 6.5736C13.5736 6.5736 13.8704 6.2176 14.3968 6.132C14.4216 6.128 14.4376 6.1224 14.4576 6.1168C15.5448 5.92 16.3712 4.9736 16.3712 3.8296C16.3712 2.5432 15.328 1.5008 14.0424 1.5008V1.5Z" fill="#00BFC5"/>
</g>
<path d="M45.6216 22.26L44.3896 18.256L54.1056 8.4H59.7336L45.6216 22.26ZM42.1496 28V8.4H46.9096V28H42.1496ZM54.7216 28L47.4416 18.424L50.6616 15.652L60.2656 28H54.7216ZM70.523 28.28C69.0297 28.28 67.667 28.028 66.435 27.524C65.203 27.02 64.1297 26.3107 63.215 25.396C62.3003 24.4813 61.591 23.408 61.087 22.176C60.583 20.944 60.331 19.5907 60.331 18.116C60.331 16.6413 60.583 15.288 61.087 14.056C61.591 12.824 62.3003 11.7507 63.215 10.836C64.1297 9.92133 65.203 9.212 66.435 8.708C67.667 8.204 69.0203 7.952 70.495 7.952C71.9697 7.952 73.323 8.204 74.555 8.708C75.787 9.212 76.8603 9.92133 77.775 10.836C78.6897 11.7507 79.3897 12.824 79.875 14.056C80.379 15.288 80.631 16.6413 80.631 18.116C80.631 19.572 80.379 20.9253 79.875 22.176C79.3897 23.408 78.6897 24.4813 77.775 25.396C76.8603 26.3107 75.787 27.02 74.555 27.524C73.323 28.028 71.979 28.28 70.523 28.28ZM70.495 23.8C71.2603 23.8 71.9603 23.66 72.595 23.38C73.2483 23.1 73.8083 22.708 74.275 22.204C74.7603 21.6813 75.1337 21.0747 75.395 20.384C75.6563 19.6933 75.787 18.9373 75.787 18.116C75.787 17.2947 75.6563 16.5387 75.395 15.848C75.1337 15.1573 74.7603 14.56 74.275 14.056C73.8083 13.5333 73.2483 13.132 72.595 12.852C71.9603 12.572 71.2603 12.432 70.495 12.432C69.7297 12.432 69.0203 12.572 68.367 12.852C67.7323 13.132 67.1723 13.5333 66.687 14.056C66.2017 14.56 65.8283 15.1573 65.567 15.848C65.3243 16.5387 65.203 17.2947 65.203 18.116C65.203 18.9373 65.3243 19.7027 65.567 20.412C65.8283 21.1027 66.2017 21.7 66.687 22.204C67.1723 22.708 67.7323 23.1 68.367 23.38C69.0203 23.66 69.7297 23.8 70.495 23.8ZM84.3137 28V8.4H92.5177C93.955 8.4 95.271 8.64267 96.4657 9.128C97.6603 9.59467 98.687 10.2667 99.5457 11.144C100.423 12.0213 101.095 13.0573 101.562 14.252C102.028 15.4467 102.262 16.7627 102.262 18.2C102.262 19.6373 102.028 20.9627 101.562 22.176C101.095 23.3707 100.423 24.4067 99.5457 25.284C98.687 26.1427 97.6603 26.8147 96.4657 27.3C95.271 27.7667 93.955 28 92.5177 28H84.3137ZM89.0737 24.752L88.4297 23.8H92.3777C93.1617 23.8 93.8617 23.6693 94.4777 23.408C95.0937 23.128 95.6163 22.7453 96.0457 22.26C96.4937 21.7747 96.839 21.1867 97.0817 20.496C97.3243 19.8053 97.4457 19.04 97.4457 18.2C97.4457 17.36 97.3243 16.5947 97.0817 15.904C96.839 15.2133 96.4937 14.6253 96.0457 14.14C95.6163 13.6547 95.0937 13.2813 94.4777 13.02C93.8617 12.74 93.1617 12.6 92.3777 12.6H88.3457L89.0737 11.704V24.752ZM102.904 28L110.66 8.4H114.692L122.392 28H117.576L113.88 18.06C113.73 17.668 113.581 17.248 113.432 16.8C113.282 16.352 113.133 15.8947 112.984 15.428C112.834 14.9427 112.685 14.476 112.536 14.028C112.405 13.5613 112.293 13.132 112.2 12.74L113.04 12.712C112.928 13.1787 112.797 13.636 112.648 14.084C112.517 14.532 112.377 14.98 112.228 15.428C112.097 15.8573 111.948 16.296 111.78 16.744C111.612 17.1733 111.453 17.6213 111.304 18.088L107.608 28H102.904ZM106.6 24.248L108.084 20.664H117.1L118.556 24.248H106.6ZM124.837 28V8.4H138.501V12.46H129.457V23.94H138.781V28H124.837ZM127.077 19.964V16.1H137.241V19.964H127.077Z" fill="url(#paint3_linear_31_46)"/>
<defs>
<linearGradient id="paint0_linear_31_46" x1="-2.2096" y1="14.1184" x2="4.9856" y2="21.1104" gradientUnits="userSpaceOnUse">
<stop offset="0.449" stop-color="#00BFC5"/>
<stop offset="0.505" stop-color="#00BFC5" stop-opacity="0.937"/>
<stop offset="0.608" stop-color="#00BFC5" stop-opacity="0.769"/>
<stop offset="0.745" stop-color="#00BFC5" stop-opacity="0.498"/>
<stop offset="0.911" stop-color="#00BFC5" stop-opacity="0.127"/>
<stop offset="0.964" stop-color="#00BFC5" stop-opacity="0"/>
</linearGradient>
<linearGradient id="paint1_linear_31_46" x1="28.9241" y1="28.6024" x2="18.7665" y2="19.448" gradientUnits="userSpaceOnUse">
<stop offset="0.577" stop-color="#AEFC65"/>
<stop offset="0.897" stop-color="#AEFC65" stop-opacity="0.3"/>
<stop offset="0.982" stop-color="#AEFC65" stop-opacity="0"/>
</linearGradient>
<linearGradient id="paint2_linear_31_46" x1="18.436" y1="7.40869" x2="13.4744" y2="13.8647" gradientUnits="userSpaceOnUse">
<stop stop-color="#AEFC65"/>
<stop offset="1" stop-color="#00BFC5"/>
</linearGradient>
<linearGradient id="paint3_linear_31_46" x1="39.6856" y1="17.5" x2="140.424" y2="12.3712" gradientUnits="userSpaceOnUse">
<stop stop-color="#AEFC65"/>
<stop offset="0.702489" stop-color="#00BFC5"/>
</linearGradient>
<clipPath id="clip0_31_46">
<rect width="31.6856" height="32" fill="white" transform="translate(0 1.5)"/>
</clipPath>
</defs>
</svg>
